<?xml version='1.0' encoding='UTF-8'?>
<svg x="0px" y="0px" viewBox="0 0 32 32" version="1.1" xmlns="http://www.w3.org/2000/svg" xmlns:xlink="http://www.w3.org/1999/xlink" xml:space="preserve" id="Layer_1" style="enable-background:new 0 0 32 32">
  <style type="text/css">
	.Blue{fill:#1177D7;}
	.Green{fill:#039C23;}
	.Yellow{fill:#FFB115;}
	.Black{fill:#727272;}
	.White{fill:#FFFFFF;}
	.Red{fill:#D11C1C;}
	.st0{opacity:0.75;}
</style>
  <g id="Phone">
    <path d="M27.7,23.6l-5.3-5.3c-0.4-0.4-1-0.4-1.4,0l-2.8,2.8c-3.2-1.5-5.8-4.1-7.3-7.3l2.8-2.8c0.4-0.4,0.4-1,0-1.4   L8.4,4.3C8,3.9,7.4,3.9,6.9,4.3L4.3,6.9C4.1,7.2,4,7.4,4,7.7C4,18.9,13.1,28,24.3,28c0.3,0,0.5-0.1,0.7-0.3l2.6-2.6   C28.1,24.6,28.1,24,27.7,23.6z" class="Blue" />
  </g>
</svg>